<svg width="64" height="64" viewBox="0 0 64 64" xmlns="http://www.w3.org/2000/svg">
  <defs>
    <linearGradient id="bg" x1="10" y1="8" x2="54" y2="58" gradientUnits="userSpaceOnUse">
      <stop stop-color="#6EA8FE"/>
      <stop offset="1" stop-color="#263F78"/>
    </linearGradient>

    <linearGradient id="cloud" x1="16" y1="22" x2="50" y2="44" gradientUnits="userSpaceOnUse">
      <stop stop-color="#E7ECFF"/>
      <stop offset="1" stop-color="#8BB9FF"/>
    </linearGradient>
  </defs>

  <rect width="64" height="64" rx="16" fill="#0B1020"/>
  <rect x="5" y="5" width="54" height="54" rx="14" fill="url(#bg)" opacity="0.28"/>
  <path
    d="M21.5 43C16.8 43 13 39.35 13 34.85C13 30.66 16.26 27.17 20.43 26.75C22.17 22.2 26.58 19 31.75 19C37.61 19 42.52 23.11 43.72 28.61C47.78 29.3 51 32.84 51 37C51 41.74 47.05 43 42.17 43H21.5Z"
    fill="url(#cloud)"
  />
  <path
    d="M32 40V28M32 28L27.5 32.5M32 28L36.5 32.5"
    stroke="#0B1020"
    stroke-width="3"
    stroke-linecap="round"
    stroke-linejoin="round"
    opacity="0.88"
  />
</svg>